{
	"asset":{
		"generator":"Khronos glTF Blender I/O v4.3.47",
		"version":"2.0"
	},
	"scene":0,
	"scenes":[
		{
			"name":"Scene",
			"nodes":[
				0
			]
		}
	],
	"nodes":[
		{
			"mesh":0,
			"name":"mothership_wg_reference",
			"rotation":[
				0.7071068286895752,
				0,
				0,
				0.7071068286895752
			]
		}
	],
	"materials":[
		{
			"doubleSided":true,
			"name":"mothership",
			"pbrMetallicRoughness":{
				"baseColorTexture":{
					"index":0
				},
				"metallicFactor":0,
				"roughnessFactor":0.6900347471237183
			}
		}
	],
	"meshes":[
		{
			"name":"mothership_wg_reference",
			"primitives":[
				{
					"attributes":{
						"POSITION":0,
						"NORMAL":1,
						"TEXCOORD_0":2
					},
					"indices":3,
					"material":0
				}
			]
		}
	],
	"textures":[
		{
			"sampler":0,
			"source":0
		}
	],
	"images":[
		{
			"mimeType":"image/png",
			"name":"mothershipcolor",
			"uri":"mothershipcolor.png"
		}
	],
	"accessors":[
		{
			"bufferView":0,
			"componentType":5126,
			"count":3812,
			"max":[
				889.4370727539062,
				889.4370727539062,
				47.268470764160156
			],
			"min":[
				-889.4370727539062,
				-889.4370727539062,
				-251.7282257080078
			],
			"type":"VEC3"
		},
		{
			"bufferView":1,
			"componentType":5126,
			"count":3812,
			"type":"VEC3"
		},
		{
			"bufferView":2,
			"componentType":5126,
			"count":3812,
			"type":"VEC2"
		},
		{
			"bufferView":3,
			"componentType":5123,
			"count":17040,
			"type":"SCALAR"
		}
	],
	"bufferViews":[
		{
			"buffer":0,
			"byteLength":45744,
			"byteOffset":0,
			"target":34962
		},
		{
			"buffer":0,
			"byteLength":45744,
			"byteOffset":45744,
			"target":34962
		},
		{
			"buffer":0,
			"byteLength":30496,
			"byteOffset":91488,
			"target":34962
		},
		{
			"buffer":0,
			"byteLength":34080,
			"byteOffset":121984,
			"target":34963
		}
	],
	"samplers":[
		{
			"magFilter":9729,
			"minFilter":9987
		}
	],
	"buffers":[
		{
			"byteLength":156064,
			"uri":"Test2.bin"
		}
	]
}
